<svg width="28" height="30" viewBox="0 0 28 30" fill="none" xmlns="http://www.w3.org/2000/svg">
<path d="M23.2689 5.47503C23.2197 5.54637 22.3874 6.55081 21.0923 8.3257C20.6458 8.93614 20.0933 9.58339 19.6123 10.2189C18.0281 12.3082 16.3712 14.2899 15.7654 14.4901C14.4334 14.9301 15.199 13.4952 14.6993 13.3017C14.5418 13.2411 13.0857 14.1813 12.4715 14.54C12.3312 14.3672 12.1744 14.2217 12.002 14.1068C13.5326 12.6393 15.1858 11.111 15.3395 11.0997C15.5105 11.0886 15.6274 12.6234 16.1872 12.2778C16.5882 12.03 18.068 10.6233 19.6004 9.12451C20.1331 8.60248 20.6733 8.06878 21.1768 7.5704C22.4845 6.27123 23.2183 5.52537 23.2689 5.47503Z" fill="#CCF381"/>
<path d="M14.1768 17.0406C14.0611 17.1436 13.4922 17.6968 12.7539 18.4208C12.6838 18.4897 12.6116 18.5594 12.5381 18.632C10.8423 20.294 8.59514 22.6556 8.53992 22.7106C8.59519 22.6294 11.0165 19.1381 12.7681 16.8872C12.8914 16.7285 13.0108 16.5766 13.1263 16.4326C13.8527 15.5235 14.4059 14.9222 14.5243 15.0303C14.9309 15.4022 14.5628 16.6954 14.1768 17.0406Z" fill="#CCF381"/>
<path d="M21.675 6.20734C21.5241 6.33813 21.4744 6.04339 21.5708 5.72003C21.7511 5.11195 22.3234 4.58605 22.3234 4.58605C21.9543 5.18596 22.0753 5.86083 21.675 6.20734ZM22.8627 3.82851C21.9667 4.16915 20.9861 5.74684 20.8036 7.30365C20.7913 7.41036 20.7829 7.5112 20.7789 7.60883C20.8036 7.58432 20.8286 7.55932 20.8533 7.53482C20.9677 7.42129 21.0807 7.30955 21.192 7.19967C21.5514 6.8418 21.8905 6.503 22.1919 6.20279C22.3907 5.41986 22.8957 4.69868 23.3611 4.52291C23.6523 4.41301 23.8644 4.54471 23.962 4.83082C23.8947 4.03017 23.4847 3.59101 22.8627 3.82851Z" fill="#CCF381"/>
<path d="M23.7064 6.15631C23.4207 7.13512 22.8526 8.11186 22.2129 8.5958C21.7867 8.9191 21.4044 8.97182 21.131 8.7894C21.1366 8.78227 21.1411 8.77505 21.1467 8.76794C21.1546 8.75722 21.1624 8.74746 21.1702 8.73674C21.2634 8.61084 21.3545 8.48661 21.4446 8.36325C21.7159 7.99134 21.9743 7.63243 22.2114 7.30209C22.3784 7.48197 22.6484 7.46788 22.953 7.23084C23.2523 6.99901 23.5237 6.59489 23.7064 6.15631Z" fill="#CCF381"/>
<path d="M3.40174 29.7169C3.40174 29.7169 1.52563 25.3575 4.46579 18.8673C7.79261 11.5237 13.4771 7.51026 18.8999 4.41071C23.3021 1.89454 27.9791 -3.8147e-06 27.9791 -3.8147e-06C27.9791 -3.8147e-06 19.8607 2.69732 10.6001 7.32647C1.33949 11.9556 -3.8187 22.2627 3.40174 29.7169Z" fill="#CCF381"/>
<path d="M12.7981 16.1094C12.7975 16.1103 12.7966 16.1116 12.7951 16.1125C12.7168 16.2109 12.6371 16.313 12.5543 16.4178C12.1735 16.0786 11.6487 16.0141 11.0249 16.3052C9.40808 17.0596 7.76667 19.8624 7.51099 22.4938C7.40944 23.5451 7.54983 24.3472 7.86106 24.856C7.91544 24.9443 7.97459 25.0238 8.0382 25.0941H8.03911C8.52899 25.6329 9.29903 25.6381 10.1799 25.0041C10.9348 24.4607 11.637 23.5368 12.1765 22.471H12.1774V22.4704C12.2087 22.4075 12.2401 22.3449 12.2703 22.2805C12.3237 22.171 12.3751 22.06 12.4241 21.9471C12.3948 22.0464 12.3641 22.146 12.3318 22.245C12.3151 22.2987 12.298 22.3517 12.2798 22.4053C11.3667 25.1839 9.72948 27.8341 7.91452 29.1587C6.05839 30.5131 4.49735 30.1562 3.79092 28.4441C3.79092 28.4425 3.7903 28.4419 3.7903 28.4404C3.71831 28.2674 3.65618 28.0799 3.60272 27.8794C3.56477 27.7351 3.53103 27.5831 3.50236 27.4252C3.37509 26.7162 3.34882 25.8703 3.44321 24.8989C3.62094 23.0705 4.18787 21.1928 4.98065 19.5245C4.98213 19.5217 4.98363 19.5186 4.98514 19.5155C5.81761 17.7664 6.89833 16.2479 8.04059 15.2577C8.132 15.1775 8.22339 15.101 8.31569 15.0292C8.47909 14.9009 8.64366 14.7828 8.80768 14.6785V14.6779H8.80857C8.9191 14.6067 9.02901 14.5416 9.13953 14.4827C9.20974 14.4442 9.28081 14.4081 9.35102 14.3748C11.0372 13.5758 12.2924 14.3415 12.7981 16.1094Z" fill="#CCF381"/>
</svg>
